<?xml version="1.0" encoding="utf-8"?>
<!-- OZ-POS SVG Favicon — Scalable vector favicon for modern browsers -->
<svg xmlns="http://www.w3.org/2000/svg" viewBox="0 0 100 100">
  <defs>
    <linearGradient id="bg" x1="0%" y1="0%" x2="100%" y2="100%">
      <stop offset="0%" stop-color="#2563EB"/>
      <stop offset="100%" stop-color="#6366F1"/>
    </linearGradient>
  </defs>
  <rect width="100" height="100" rx="20" fill="url(#bg)"/>
  <g fill="#FFFFFF" transform="translate(50,48) scale(1.1)">
    <path d="M0,-30 C8,-30 16,-28.5 23,-25 C30,-21.5 36,-16.5 40,-10
             C44,-3.5 46,3.5 46,11 C46,18.5 44,25 40,31
             C36,37 30,41 23,44 C16,47 8,48.5 0,48.5
             C-8,48.5 -16,47 -23,44 C-30,41 -36,37 -40,31
             C-44,25 -46,18.5 -46,11 C-46,3.5 -44,-3.5 -40,-10
             C-36,-16.5 -30,-21.5 -23,-25 C-16,-28.5 -8,-30 0,-30Z
             fill-opacity="0.15"/>
    <path d="M0,-28 C-6,-28 -12,-26 -17,-22.5 C-22,-19 -26,-14 -28,-8
             C-30,-2 -30,4 -28,10 C-26,16 -22,21 -17,24.5
             C-12,28 -6,30 0,30 C6,30 12,28 17,24.5
             C22,21 26,16 28,10 C30,4 30,-2 28,-8
             C26,-14 22,-19 17,-22.5 C12,-26 6,-28 0,-28Z"/>
    <path d="M0,-18 C-4,-18 -7.5,-16.5 -10,-14 C-12.5,-11.5 -14,-8 -14,-4
             C-14,0 -12.5,3.5 -10,6 C-7.5,8.5 -4,10 0,10
             C4,10 7.5,8.5 10,6 C12.5,3.5 14,0 14,-4
             C14,-8 12.5,-11.5 10,-14 C7.5,-16.5 4,-18 0,-18Z"/>
  </g>
  <g fill="#FFFFFF" transform="translate(50,75)">
    <rect x="-18" y="0" width="4" height="18" rx="1.5"/>
    <rect x="-6" y="0" width="4" height="18" rx="1.5"/>
    <rect x="6" y="0" width="4" height="18" rx="1.5"/>
    <rect x="18" y="0" width="4" height="18" rx="1.5"/>
  </g>
</svg>
