<?xml version="1.0" encoding="utf-8"?>
<!-- Beta Retail -- Full Logo (dark variant, white text on dark backgrounds) -->
<svg version="1.1" xmlns="http://www.w3.org/2000/svg" viewBox="0 0 400 120">
  <defs>
    <linearGradient id="hex-grad-dark" x1="0%" y1="0%" x2="100%" y2="100%">
      <stop offset="0%" stop-color="#2EC4B6"/>
      <stop offset="100%" stop-color="#1AAE9E"/>
    </linearGradient>
  </defs>
  <!-- Logo mark -->
  <polygon points="52,12 100,40 100,92 52,120 4,92 4,40" fill="url(#hex-grad-dark)"/>
  <path d="M36,38 L36,94 L58,94 C66,94 72,91 76,85 C80,79 82,72 82,66 C82,60 80,53 76,47 C72,41 66,38 58,38 Z M46,48 L56,48 C61,48 65,50 68,54 C71,58 72,62 72,66 C72,70 71,74 68,78 C65,82 61,84 56,84 L46,84 Z" fill="#FFFFFF"/>
  <!-- Wordmark -->
  <g fill="#FFFFFF" font-family="'Plus Jakarta Sans', 'Inter', Arial, sans-serif" font-weight="700">
    <text x="116" y="64" font-size="52" letter-spacing="2">Beta</text>
  </g>
  <g fill="#FFFFFF" fill-opacity="0.7" font-family="'Plus Jakarta Sans', 'Inter', Arial, sans-serif" font-weight="600">
    <text x="116" y="96" font-size="28" letter-spacing="6" text-transform="uppercase">RETAIL</text>
  </g>
</svg>
