<?xml version="1.0" encoding="utf-8"?>
<!-- OZ-POS Logo — Dark Theme Variant (light text on dark backgrounds) -->
<svg version="1.1" xmlns="http://www.w3.org/2000/svg" xmlns:xlink="http://www.w3.org/1999/xlink" x="0px" y="0px"
	 viewBox="0 0 283.46 283.46" style="enable-background:new 0 0 283.46 283.46;" xml:space="preserve">
<style type="text/css">
	.st-text{fill:#FFFFFF;}
</style>
<g>
	<path fill="#FFFFFF" d="M202.81,87.33c-0.71-0.84-1.63-0.61-2.46-0.61c-19.37-0.15-38.74-0.26-58.11-0.42c-11.25-0.09-22.5-0.34-33.75-0.34
		c-10.61,0-19.54,3.86-26.15,12.36c-3.59,4.62-5.82,9.83-7,15.63c-1.18,5.78-0.82,11.4,0.61,16.97c2.04,7.93,6.38,14.4,13.05,19.25
		c7.87,5.72,16.73,7.31,26.09,5.7c8.98-1.55,16.09-6.32,21.19-14c5.43-8.2,7.03-17.24,5.57-26.77c-1.17-7.62-4.38-14.41-10.2-19.74
		c-0.74-0.68-0.74-0.69-0.81-2.06c0.4-0.41,0.91-0.29,1.39-0.29c8.79,0,17.59,0.08,26.38-0.03c2.02-0.03,3.12,0.87,3.86,2.47
		c1.94,4.19,3.58,8.51,4.45,13.04c1.57,8.17,1.75,16.43,0.09,24.58c-1.72,8.45-5.3,16.16-10.52,23.08
		c-4.35,5.75-9.56,10.58-15.73,14.26c-4.95,2.95-10.18,5.29-15.85,6.7c-6.37,1.58-12.79,2.61-19.33,2.18
		c-8.82-0.57-17.3-2.45-25.28-6.57c-8.76-4.52-16.09-10.58-21.61-18.71c-3.91-5.77-6.64-12.07-8.28-18.93
		c-1.64-6.89-1.68-13.79-1.12-20.71c0.42-5.27,1.91-10.33,3.93-15.26c3.18-7.75,7.84-14.43,13.92-20.13
		c5.56-5.21,11.98-9.05,19.1-11.82c3.9-1.52,7.81-2.24,12-2.23c44.83,0.05,89.66,0.02,134.49,0.02c2.26,0,2.73,0.42,2.74,2.67
		c0.04,4.8-0.03,9.59,0.04,14.39c0.02,1.77-0.87,3.01-1.92,4.24c-10.65,12.37-21.31,24.73-31.96,37.11
		c-8.53,9.91-17.04,19.83-25.56,29.74c-0.53,0.62-1.21,1.28-0.85,2.1c0.4,0.91,1.42,0.53,2.16,0.53
		c18.39,0.02,36.78,0.02,55.16,0.02c2.7,0,2.94,0.21,2.95,2.94c0.01,5.35,0.02,10.7,0,16.05c-0.01,2.08-0.4,2.45-2.51,2.45
		c-28.97,0-57.93,0-86.9,0c-0.43,0-0.86-0.01-1.29-0.07c-0.45-0.06-0.84-0.25-0.94-0.75c-0.11-0.54,0.31-0.73,0.69-0.95
		c5.5-3.23,10.27-7.35,14.39-12.2c5-5.89,8.94-12.39,11.59-19.69c2.46-6.77,3.89-13.7,4.01-20.87c0.05-2.87,2.19-4.32,3.72-6.13
		c7.86-9.27,15.84-18.43,23.77-27.63C202.37,88.47,202.78,88.07,202.81,87.33z"/>
</g>
<g>
	<path class="st-text" d="M21.27,198.63h7.11c0.95,0,1.87,0.08,2.75,0.23c0.88,0.15,1.66,0.44,2.33,0.85c0.67,0.41,1.21,0.97,1.61,1.67
		c0.4,0.7,0.6,1.6,0.6,2.68c0,1.92-0.6,3.38-1.81,4.38c-1.21,1-2.98,1.5-5.3,1.5H22.7v8.26h-1.43V198.63z M22.7,208.51h5.91
		c1,0,1.85-0.1,2.56-0.29c0.7-0.19,1.28-0.47,1.72-0.84s0.77-0.82,0.97-1.37c0.2-0.54,0.3-1.17,0.3-1.89c0-0.87-0.15-1.57-0.46-2.11
		s-0.71-0.95-1.23-1.24c-0.52-0.29-1.12-0.49-1.8-0.58c-0.68-0.1-1.39-0.14-2.14-0.14H22.7V208.51z"/>
	<path class="st-text" d="M48.07,198.27c1.33,0,2.57,0.24,3.7,0.71c1.13,0.48,2.11,1.16,2.92,2.04c0.82,0.88,1.45,1.94,1.91,3.18
		c0.46,1.24,0.69,2.62,0.69,4.15c0,1.51-0.23,2.89-0.68,4.15s-1.09,2.33-1.9,3.23c-0.82,0.9-1.79,1.6-2.91,2.09
		c-1.13,0.49-2.37,0.74-3.73,0.74c-1.36,0-2.6-0.25-3.73-0.74c-1.13-0.49-2.11-1.19-2.92-2.08c-0.82-0.89-1.45-1.97-1.9-3.22
		c-0.45-1.25-0.68-2.64-0.68-4.16c0-1.54,0.23-2.92,0.69-4.16c0.46-1.24,1.1-2.3,1.92-3.17c0.82-0.88,1.8-1.55,2.92-2.03
		C45.49,198.51,46.73,198.27,48.07,198.27z M48.06,217.12c1.12,0,2.15-0.19,3.1-0.58s1.77-0.96,2.46-1.71
		c0.69-0.75,1.23-1.67,1.61-2.76c0.38-1.09,0.57-2.33,0.57-3.73c0-1.41-0.19-2.64-0.58-3.72c-0.39-1.07-0.92-1.97-1.61-2.71
		c-0.69-0.73-1.49-1.29-2.43-1.66c-0.94-0.38-1.96-0.56-3.06-0.56c-1.13,0-2.17,0.19-3.12,0.57c-0.95,0.38-1.77,0.94-2.46,1.67
		c-0.69,0.73-1.23,1.63-1.62,2.71c-0.39,1.07-0.58,2.31-0.58,3.7c0,1.39,0.19,2.64,0.57,3.73c0.38,1.09,0.91,2.01,1.6,2.76
		c0.68,0.75,1.5,1.32,2.45,1.71S46.94,217.12,48.06,217.12z"/>
	<path class="st-text" d="M63.46,218.19h-1.43v-19.57h1.43V218.19z"/>
	<path class="st-text" d="M84.22,218.19h-1.88l-11.94-17.87v17.87h-1.43v-19.57h1.97l11.85,17.83v-17.83h1.43V218.19z"/>
	<path class="st-text" d="M102.64,200.06H95.8v18.14h-1.43v-18.14H87.6v-1.43h15.05V200.06z"/>
	<path class="st-text" d="M130.52,198.27c1.33,0,2.57,0.24,3.7,0.71c1.13,0.48,2.11,1.16,2.92,2.04c0.82,0.88,1.45,1.94,1.91,3.18
		c0.46,1.24,0.69,2.62,0.69,4.15c0,1.51-0.23,2.89-0.68,4.15s-1.09,2.33-1.9,3.23c-0.82,0.9-1.79,1.6-2.91,2.09
		c-1.13,0.49-2.37,0.74-3.73,0.74s-2.6-0.25-3.73-0.74c-1.13-0.49-2.11-1.19-2.92-2.08c-0.82-0.89-1.45-1.97-1.9-3.22
		s-0.68-2.64-0.68-4.16c0-1.54,0.23-2.92,0.69-4.16c0.46-1.24,1.1-2.3,1.92-3.17c0.82-0.88,1.8-1.55,2.92-2.03
		C127.94,198.51,129.17,198.27,130.52,198.27z M130.5,217.12c1.12,0,2.15-0.19,3.1-0.58c0.95-0.39,1.77-0.96,2.46-1.71
		c0.69-0.75,1.23-1.67,1.61-2.76s0.57-2.33,0.57-3.73c0-1.41-0.19-2.64-0.58-3.72c-0.39-1.07-0.92-1.97-1.61-2.71
		c-0.68-0.73-1.49-1.29-2.43-1.66s-1.96-0.56-3.06-0.56c-1.13,0-2.17,0.19-3.12,0.57c-0.95,0.38-1.77,0.94-2.46,1.67
		c-0.69,0.73-1.23,1.63-1.62,2.71c-0.39,1.07-0.58,2.31-0.58,3.7c0,1.39,0.19,2.64,0.57,3.73s0.91,2.01,1.6,2.76s1.5,1.32,2.45,1.71
		S129.38,217.12,130.5,217.12z"/>
	<path class="st-text" d="M156.57,200.06h-11.24v7.34h9.77v1.43h-9.77v9.36h-1.43v-19.57h12.67V200.06z"/>
	<path class="st-text" d="M184.11,218.55c-1.32,0-2.48-0.14-3.47-0.42c-0.99-0.28-1.82-0.68-2.49-1.2c-0.67-0.52-1.19-1.14-1.55-1.88
		c-0.36-0.73-0.57-1.56-0.63-2.47h1.41c0.14,0.88,0.41,1.61,0.8,2.2c0.39,0.58,0.88,1.05,1.46,1.39s1.24,0.59,1.97,0.73
		c0.74,0.14,1.52,0.21,2.36,0.21c0.87,0,1.65-0.09,2.35-0.28c0.7-0.18,1.29-0.45,1.79-0.8c0.49-0.35,0.87-0.77,1.13-1.27
		c0.26-0.49,0.39-1.05,0.39-1.67c0-0.66-0.11-1.21-0.34-1.65s-0.61-0.84-1.14-1.17c-0.54-0.33-1.24-0.63-2.12-0.89
		c-0.88-0.26-1.96-0.53-3.26-0.8c-1.07-0.24-1.99-0.51-2.76-0.82c-0.77-0.31-1.4-0.67-1.9-1.08c-0.5-0.41-0.87-0.88-1.11-1.41
		c-0.24-0.53-0.36-1.15-0.36-1.85c0-0.76,0.16-1.46,0.48-2.09c0.32-0.63,0.78-1.17,1.37-1.63s1.3-0.8,2.13-1.05
		c0.83-0.25,1.74-0.38,2.74-0.38c1,0,1.92,0.12,2.75,0.35c0.83,0.23,1.56,0.57,2.19,1.01c0.63,0.44,1.13,0.98,1.52,1.61
		c0.39,0.63,0.63,1.35,0.74,2.14h-1.38c-0.13-0.52-0.35-1.01-0.64-1.47s-0.68-0.84-1.15-1.17c-0.47-0.33-1.03-0.58-1.68-0.77
		c-0.65-0.18-1.39-0.28-2.22-0.28c-1.75,0-3.08,0.32-3.98,0.96s-1.35,1.52-1.35,2.64c0,0.51,0.08,0.96,0.25,1.34
		c0.17,0.38,0.45,0.72,0.85,1.03c0.4,0.3,0.93,0.57,1.58,0.8c0.66,0.23,1.47,0.45,2.45,0.65c0.57,0.12,1.16,0.24,1.77,0.38
		s1.2,0.29,1.78,0.46c0.58,0.18,1.13,0.4,1.65,0.66s0.98,0.58,1.37,0.96c0.39,0.38,0.7,0.84,0.93,1.37
		c0.23,0.53,0.35,1.16,0.35,1.89c0,0.83-0.18,1.6-0.53,2.3c-0.35,0.7-0.84,1.3-1.47,1.8c-0.63,0.51-1.37,0.9-2.23,1.18
		C186.06,218.41,185.12,218.55,184.11,218.55z"/>
	<path class="st-text" d="M210.93,218.19h-1.72l-2.39-6.29h-9.63c-0.35,0.99-0.72,2.03-1.13,3.14c-0.41,1.1-0.79,2.15-1.16,3.15h-1.52
		c0.64-1.69,1.28-3.35,1.9-4.97s1.25-3.23,1.87-4.83c0.62-1.6,1.24-3.21,1.87-4.83c0.63-1.62,1.26-3.27,1.9-4.95h2.02L210.93,218.19
		z M206.41,210.78l-4.54-10.88l-4.31,10.88H206.41z"/>
	<path class="st-text" d="M225.56,218.19h-11.53v-19.57h1.43v18.14h10.1V218.19z"/>
	<path class="st-text" d="M243.59,218.19h-14.13v-19.57h13.65v1.43h-12.22v7.24h11.45v1.43h-11.45v8.04h12.7V218.19z"/>
	<path class="st-text" d="M255.15,218.55c-1.32,0-2.48-0.14-3.47-0.42c-0.99-0.28-1.82-0.68-2.49-1.2c-0.67-0.52-1.19-1.14-1.55-1.88
		c-0.36-0.73-0.57-1.56-0.63-2.47h1.41c0.14,0.88,0.41,1.61,0.8,2.2c0.39,0.58,0.88,1.05,1.46,1.39c0.58,0.35,1.24,0.59,1.97,0.73
		c0.74,0.14,1.52,0.21,2.36,0.21c0.87,0,1.65-0.09,2.35-0.28c0.7-0.18,1.29-0.45,1.79-0.8s0.87-0.77,1.13-1.27
		c0.26-0.49,0.39-1.05,0.39-1.67c0-0.66-0.11-1.21-0.34-1.65c-0.23-0.45-0.61-0.84-1.14-1.17c-0.54-0.33-1.24-0.63-2.12-0.89
		s-1.96-0.53-3.26-0.8c-1.07-0.24-1.99-0.51-2.76-0.82c-0.77-0.31-1.4-0.67-1.9-1.08c-0.5-0.41-0.87-0.88-1.11-1.41
		c-0.24-0.53-0.36-1.15-0.36-1.85c0-0.76,0.16-1.46,0.48-2.09c0.32-0.63,0.78-1.17,1.37-1.63c0.59-0.45,1.3-0.8,2.13-1.05
		s1.74-0.38,2.74-0.38c1,0,1.92,0.12,2.75,0.35c0.83,0.23,1.56,0.57,2.19,1.01c0.63,0.44,1.13,0.98,1.52,1.61s0.63,1.35,0.74,2.14
		h-1.38c-0.13-0.52-0.35-1.01-0.64-1.47s-0.68-0.84-1.15-1.17c-0.47-0.33-1.03-0.58-1.68-0.77c-0.65-0.18-1.39-0.28-2.22-0.28
		c-1.75,0-3.08,0.32-3.98,0.96s-1.35,1.52-1.35,2.64c0,0.51,0.08,0.96,0.25,1.34c0.17,0.38,0.45,0.72,0.85,1.03
		c0.4,0.3,0.93,0.57,1.58,0.8c0.66,0.23,1.47,0.45,2.45,0.65c0.57,0.12,1.16,0.24,1.77,0.38c0.61,0.13,1.2,0.29,1.78,0.46
		c0.58,0.18,1.13,0.4,1.65,0.66c0.52,0.26,0.98,0.58,1.37,0.96s0.7,0.84,0.93,1.37c0.23,0.53,0.35,1.16,0.35,1.89
		c0,0.83-0.18,1.6-0.53,2.3s-0.84,1.3-1.47,1.8c-0.63,0.51-1.37,0.9-2.23,1.18C257.1,218.41,256.17,218.55,255.15,218.55z"/>
</g>
</svg>
